<svg xmlns="http://www.w3.org/2000/svg" viewBox="0 0 32 32" fill="none">
  <rect width="32" height="32" rx="8" fill="url(#g)"/>
  <g transform="translate(4, 3)" fill="white">
    <path d="M12 22c-2.5 0-4.5-1.5-5.5-3.5C5 15.5 5.5 12 7 10c.5-.7 1-1.5 1-2.5S7.5 4.5 7 3c2 .5 4 2 5.5 4.5C14 10 13.5 12.5 12 14c-1 1-1.5 2.5-.5 3.5.5.5 1 .5 1.5.5.5 0 1-.5 1-1 0-.5-.5-1-1-2 1 0 2 .5 2.5 1.5.5 1.5 0 3.5-1.5 4.5-.5.5-1.5 1-2 1z" opacity="0.35"/>
    <path d="M11.9 21c-2 0-3.7-1.2-4.5-2.8-1.2-2.4-.7-5.2.5-7 .4-.6.8-1.2.8-2s-.5-2.4-.8-3.2c1.6.4 3.2 1.6 4.3 3.6 1.1 2 .7 4-.4 5.5-.8 1-1.2 2-.4 2.8.4.4.8.4 1.2.4s.8-.4.8-.8c0-.4-.4-.8-.8-1.6.8 0 1.6.4 2 1.2.4 1.2 0 2.8-1.2 3.6-.4.3-1.2.8-1.5.8z"/>
  </g>
</svg>
